<mxfile host="app.diagrams.net" modified="2021-10-02T03:49:05.144Z" agent="5.0 (Windows NT 10.0; Win64; x64) AppleWebKit/537.36 (KHTML, like Gecko) Chrome/94.0.4606.61 Safari/537.36 Edg/94.0.992.31" etag="r7MwVjLP-0AoqYaFC7co" version="15.4.1" type="github">
  <diagram id="C5RBs43oDa-KdzZeNtuy" name="Page-1">
    <mxGraphModel dx="1237" dy="749" grid="1" gridSize="10" guides="1" tooltips="1" connect="1" arrows="1" fold="1" page="1" pageScale="1" pageWidth="827" pageHeight="1169" math="0" shadow="0">
      <root>
        <mxCell id="WIyWlLk6GJQsqaUBKTNV-0" />
        <mxCell id="WIyWlLk6GJQsqaUBKTNV-1" parent="WIyWlLk6GJQsqaUBKTNV-0" />
        <mxCell id="JZFGKROnKqlUwRcrgVXF-3" value="" style="edgeStyle=orthogonalEdgeStyle;rounded=1;orthogonalLoop=1;jettySize=auto;html=1;" parent="WIyWlLk6GJQsqaUBKTNV-1" source="JZFGKROnKqlUwRcrgVXF-0" target="JZFGKROnKqlUwRcrgVXF-2" edge="1">
          <mxGeometry relative="1" as="geometry" />
        </mxCell>
        <mxCell id="JZFGKROnKqlUwRcrgVXF-0" value="&lt;font style=&quot;font-size: 14px&quot;&gt;Bắt đầu&lt;/font&gt;" style="ellipse;whiteSpace=wrap;html=1;" parent="WIyWlLk6GJQsqaUBKTNV-1" vertex="1">
          <mxGeometry x="230" y="30" width="110" height="50" as="geometry" />
        </mxCell>
        <mxCell id="JZFGKROnKqlUwRcrgVXF-1" value="Nhập a,b,c" style="shape=parallelogram;perimeter=parallelogramPerimeter;whiteSpace=wrap;html=1;fixedSize=1;fontSize=14;" parent="WIyWlLk6GJQsqaUBKTNV-1" vertex="1">
          <mxGeometry x="220" y="120" width="130" height="40" as="geometry" />
        </mxCell>
        <mxCell id="JZFGKROnKqlUwRcrgVXF-5" value="" style="edgeStyle=orthogonalEdgeStyle;rounded=1;orthogonalLoop=1;jettySize=auto;html=1;" parent="WIyWlLk6GJQsqaUBKTNV-1" source="JZFGKROnKqlUwRcrgVXF-2" target="JZFGKROnKqlUwRcrgVXF-4" edge="1">
          <mxGeometry relative="1" as="geometry" />
        </mxCell>
        <mxCell id="JZFGKROnKqlUwRcrgVXF-19" value="" style="edgeStyle=orthogonalEdgeStyle;rounded=1;orthogonalLoop=1;jettySize=auto;html=1;" parent="WIyWlLk6GJQsqaUBKTNV-1" source="JZFGKROnKqlUwRcrgVXF-2" target="JZFGKROnKqlUwRcrgVXF-18" edge="1">
          <mxGeometry relative="1" as="geometry" />
        </mxCell>
        <mxCell id="JZFGKROnKqlUwRcrgVXF-2" value="a = 0" style="rhombus;whiteSpace=wrap;html=1;fontSize=14;" parent="WIyWlLk6GJQsqaUBKTNV-1" vertex="1">
          <mxGeometry x="245" y="180" width="80" height="80" as="geometry" />
        </mxCell>
        <mxCell id="JZFGKROnKqlUwRcrgVXF-9" value="" style="edgeStyle=orthogonalEdgeStyle;rounded=1;orthogonalLoop=1;jettySize=auto;html=1;" parent="WIyWlLk6GJQsqaUBKTNV-1" source="JZFGKROnKqlUwRcrgVXF-4" target="JZFGKROnKqlUwRcrgVXF-8" edge="1">
          <mxGeometry relative="1" as="geometry" />
        </mxCell>
        <mxCell id="JZFGKROnKqlUwRcrgVXF-17" value="" style="edgeStyle=orthogonalEdgeStyle;rounded=1;orthogonalLoop=1;jettySize=auto;html=1;" parent="WIyWlLk6GJQsqaUBKTNV-1" source="JZFGKROnKqlUwRcrgVXF-4" target="JZFGKROnKqlUwRcrgVXF-16" edge="1">
          <mxGeometry relative="1" as="geometry" />
        </mxCell>
        <mxCell id="JZFGKROnKqlUwRcrgVXF-4" value="b = 0" style="rhombus;whiteSpace=wrap;html=1;fontSize=14;" parent="WIyWlLk6GJQsqaUBKTNV-1" vertex="1">
          <mxGeometry x="405" y="180" width="80" height="80" as="geometry" />
        </mxCell>
        <mxCell id="JZFGKROnKqlUwRcrgVXF-13" value="" style="edgeStyle=orthogonalEdgeStyle;rounded=1;orthogonalLoop=1;jettySize=auto;html=1;" parent="WIyWlLk6GJQsqaUBKTNV-1" source="JZFGKROnKqlUwRcrgVXF-8" target="JZFGKROnKqlUwRcrgVXF-12" edge="1">
          <mxGeometry relative="1" as="geometry" />
        </mxCell>
        <mxCell id="JZFGKROnKqlUwRcrgVXF-15" value="" style="edgeStyle=orthogonalEdgeStyle;rounded=1;orthogonalLoop=1;jettySize=auto;html=1;" parent="WIyWlLk6GJQsqaUBKTNV-1" source="JZFGKROnKqlUwRcrgVXF-8" target="JZFGKROnKqlUwRcrgVXF-14" edge="1">
          <mxGeometry relative="1" as="geometry" />
        </mxCell>
        <mxCell id="JZFGKROnKqlUwRcrgVXF-8" value="c = 0" style="rhombus;whiteSpace=wrap;html=1;fontSize=14;" parent="WIyWlLk6GJQsqaUBKTNV-1" vertex="1">
          <mxGeometry x="567.5" y="185" width="75" height="70" as="geometry" />
        </mxCell>
        <mxCell id="JZFGKROnKqlUwRcrgVXF-47" value="" style="edgeStyle=orthogonalEdgeStyle;rounded=1;orthogonalLoop=1;jettySize=auto;html=1;fontSize=14;" parent="WIyWlLk6GJQsqaUBKTNV-1" source="JZFGKROnKqlUwRcrgVXF-12" target="JZFGKROnKqlUwRcrgVXF-46" edge="1">
          <mxGeometry relative="1" as="geometry" />
        </mxCell>
        <mxCell id="JZFGKROnKqlUwRcrgVXF-12" value="&lt;font style=&quot;font-size: 14px&quot;&gt;Vô số nghiệm&lt;/font&gt;" style="shape=display;whiteSpace=wrap;html=1;" parent="WIyWlLk6GJQsqaUBKTNV-1" vertex="1">
          <mxGeometry x="557.5" y="80" width="95" height="60" as="geometry" />
        </mxCell>
        <mxCell id="JZFGKROnKqlUwRcrgVXF-42" value="" style="edgeStyle=orthogonalEdgeStyle;rounded=1;orthogonalLoop=1;jettySize=auto;html=1;fontSize=14;startArrow=none;entryX=0.475;entryY=0.575;entryDx=0;entryDy=0;entryPerimeter=0;" parent="WIyWlLk6GJQsqaUBKTNV-1" edge="1">
          <mxGeometry relative="1" as="geometry">
            <mxPoint x="605" y="750" as="sourcePoint" />
            <mxPoint x="605" y="750" as="targetPoint" />
            <Array as="points" />
          </mxGeometry>
        </mxCell>
        <mxCell id="JZFGKROnKqlUwRcrgVXF-60" value="" style="edgeStyle=orthogonalEdgeStyle;rounded=1;orthogonalLoop=1;jettySize=auto;html=1;fontSize=14;startArrow=none;" parent="WIyWlLk6GJQsqaUBKTNV-1" source="W_G9nljvapc-reSJywXX-4" edge="1">
          <mxGeometry relative="1" as="geometry">
            <mxPoint x="605" y="760" as="targetPoint" />
          </mxGeometry>
        </mxCell>
        <mxCell id="JZFGKROnKqlUwRcrgVXF-14" value="&lt;font style=&quot;font-size: 14px&quot;&gt;Vô nghiệm&lt;/font&gt;" style="shape=display;whiteSpace=wrap;html=1;" parent="WIyWlLk6GJQsqaUBKTNV-1" vertex="1">
          <mxGeometry x="557.5" y="330" width="95" height="60" as="geometry" />
        </mxCell>
        <mxCell id="JZFGKROnKqlUwRcrgVXF-26" value="" style="edgeStyle=orthogonalEdgeStyle;rounded=1;orthogonalLoop=1;jettySize=auto;html=1;" parent="WIyWlLk6GJQsqaUBKTNV-1" source="JZFGKROnKqlUwRcrgVXF-16" target="JZFGKROnKqlUwRcrgVXF-25" edge="1">
          <mxGeometry relative="1" as="geometry" />
        </mxCell>
        <mxCell id="JZFGKROnKqlUwRcrgVXF-16" value="x = -c/b" style="whiteSpace=wrap;html=1;fontSize=14;" parent="WIyWlLk6GJQsqaUBKTNV-1" vertex="1">
          <mxGeometry x="388.75" y="290" width="112.5" height="40" as="geometry" />
        </mxCell>
        <mxCell id="JZFGKROnKqlUwRcrgVXF-21" value="" style="edgeStyle=orthogonalEdgeStyle;rounded=1;orthogonalLoop=1;jettySize=auto;html=1;" parent="WIyWlLk6GJQsqaUBKTNV-1" source="JZFGKROnKqlUwRcrgVXF-18" target="JZFGKROnKqlUwRcrgVXF-20" edge="1">
          <mxGeometry relative="1" as="geometry" />
        </mxCell>
        <mxCell id="JZFGKROnKqlUwRcrgVXF-18" value="delta = b*b - 4*a*c" style="whiteSpace=wrap;html=1;fontSize=14;" parent="WIyWlLk6GJQsqaUBKTNV-1" vertex="1">
          <mxGeometry x="210" y="300" width="150" height="40" as="geometry" />
        </mxCell>
        <mxCell id="JZFGKROnKqlUwRcrgVXF-23" value="" style="edgeStyle=orthogonalEdgeStyle;rounded=1;orthogonalLoop=1;jettySize=auto;html=1;" parent="WIyWlLk6GJQsqaUBKTNV-1" source="JZFGKROnKqlUwRcrgVXF-20" target="JZFGKROnKqlUwRcrgVXF-22" edge="1">
          <mxGeometry relative="1" as="geometry" />
        </mxCell>
        <mxCell id="JZFGKROnKqlUwRcrgVXF-28" value="" style="edgeStyle=orthogonalEdgeStyle;rounded=1;orthogonalLoop=1;jettySize=auto;html=1;" parent="WIyWlLk6GJQsqaUBKTNV-1" source="JZFGKROnKqlUwRcrgVXF-20" target="JZFGKROnKqlUwRcrgVXF-27" edge="1">
          <mxGeometry relative="1" as="geometry" />
        </mxCell>
        <mxCell id="JZFGKROnKqlUwRcrgVXF-20" value="delta = 0" style="rhombus;whiteSpace=wrap;html=1;fontSize=14;" parent="WIyWlLk6GJQsqaUBKTNV-1" vertex="1">
          <mxGeometry x="232.5" y="370" width="105" height="60" as="geometry" />
        </mxCell>
        <mxCell id="JZFGKROnKqlUwRcrgVXF-32" value="" style="edgeStyle=orthogonalEdgeStyle;rounded=1;orthogonalLoop=1;jettySize=auto;html=1;" parent="WIyWlLk6GJQsqaUBKTNV-1" source="JZFGKROnKqlUwRcrgVXF-22" target="JZFGKROnKqlUwRcrgVXF-31" edge="1">
          <mxGeometry relative="1" as="geometry" />
        </mxCell>
        <mxCell id="JZFGKROnKqlUwRcrgVXF-36" value="" style="edgeStyle=orthogonalEdgeStyle;rounded=1;orthogonalLoop=1;jettySize=auto;html=1;" parent="WIyWlLk6GJQsqaUBKTNV-1" source="JZFGKROnKqlUwRcrgVXF-22" target="JZFGKROnKqlUwRcrgVXF-35" edge="1">
          <mxGeometry relative="1" as="geometry" />
        </mxCell>
        <mxCell id="JZFGKROnKqlUwRcrgVXF-22" value="delta &amp;gt; 0" style="rhombus;whiteSpace=wrap;html=1;fontSize=14;" parent="WIyWlLk6GJQsqaUBKTNV-1" vertex="1">
          <mxGeometry x="232.5" y="460" width="105" height="60" as="geometry" />
        </mxCell>
        <mxCell id="W_G9nljvapc-reSJywXX-2" value="" style="edgeStyle=orthogonalEdgeStyle;rounded=0;orthogonalLoop=1;jettySize=auto;html=1;fontSize=14;startArrow=none;" edge="1" parent="WIyWlLk6GJQsqaUBKTNV-1" source="W_G9nljvapc-reSJywXX-4">
          <mxGeometry relative="1" as="geometry">
            <mxPoint x="600" y="430" as="targetPoint" />
            <Array as="points">
              <mxPoint x="445" y="430" />
            </Array>
          </mxGeometry>
        </mxCell>
        <mxCell id="JZFGKROnKqlUwRcrgVXF-25" value="&lt;font style=&quot;font-size: 14px&quot;&gt;In ra x&lt;/font&gt;" style="shape=display;whiteSpace=wrap;html=1;" parent="WIyWlLk6GJQsqaUBKTNV-1" vertex="1">
          <mxGeometry x="397.5" y="360" width="95" height="50" as="geometry" />
        </mxCell>
        <mxCell id="JZFGKROnKqlUwRcrgVXF-30" value="" style="edgeStyle=orthogonalEdgeStyle;rounded=1;orthogonalLoop=1;jettySize=auto;html=1;" parent="WIyWlLk6GJQsqaUBKTNV-1" source="JZFGKROnKqlUwRcrgVXF-27" target="JZFGKROnKqlUwRcrgVXF-29" edge="1">
          <mxGeometry relative="1" as="geometry" />
        </mxCell>
        <mxCell id="JZFGKROnKqlUwRcrgVXF-27" value="x = -b/(2*a)" style="whiteSpace=wrap;html=1;fontSize=14;" parent="WIyWlLk6GJQsqaUBKTNV-1" vertex="1">
          <mxGeometry x="60" y="380" width="100" height="40" as="geometry" />
        </mxCell>
        <mxCell id="JZFGKROnKqlUwRcrgVXF-53" value="" style="edgeStyle=orthogonalEdgeStyle;rounded=1;orthogonalLoop=1;jettySize=auto;html=1;fontSize=14;" parent="WIyWlLk6GJQsqaUBKTNV-1" source="JZFGKROnKqlUwRcrgVXF-29" target="JZFGKROnKqlUwRcrgVXF-52" edge="1">
          <mxGeometry relative="1" as="geometry" />
        </mxCell>
        <mxCell id="JZFGKROnKqlUwRcrgVXF-29" value="&lt;font style=&quot;font-size: 14px&quot;&gt;In ra x&lt;/font&gt;" style="shape=display;whiteSpace=wrap;html=1;" parent="WIyWlLk6GJQsqaUBKTNV-1" vertex="1">
          <mxGeometry x="62.5" y="450" width="95" height="50" as="geometry" />
        </mxCell>
        <mxCell id="JZFGKROnKqlUwRcrgVXF-34" value="" style="edgeStyle=orthogonalEdgeStyle;rounded=1;orthogonalLoop=1;jettySize=auto;html=1;" parent="WIyWlLk6GJQsqaUBKTNV-1" source="JZFGKROnKqlUwRcrgVXF-31" target="JZFGKROnKqlUwRcrgVXF-33" edge="1">
          <mxGeometry relative="1" as="geometry" />
        </mxCell>
        <mxCell id="JZFGKROnKqlUwRcrgVXF-31" value="x1 = (-b + sqrt(delta)/(2*a)&lt;br&gt;x2 = (-b - sqrt(delta)/(2*a)" style="whiteSpace=wrap;html=1;fontSize=14;" parent="WIyWlLk6GJQsqaUBKTNV-1" vertex="1">
          <mxGeometry x="410" y="460" width="180" height="60" as="geometry" />
        </mxCell>
        <mxCell id="JZFGKROnKqlUwRcrgVXF-56" value="" style="edgeStyle=orthogonalEdgeStyle;rounded=1;orthogonalLoop=1;jettySize=auto;html=1;fontSize=14;" parent="WIyWlLk6GJQsqaUBKTNV-1" source="JZFGKROnKqlUwRcrgVXF-33" target="JZFGKROnKqlUwRcrgVXF-55" edge="1">
          <mxGeometry relative="1" as="geometry" />
        </mxCell>
        <mxCell id="JZFGKROnKqlUwRcrgVXF-33" value="&lt;font style=&quot;font-size: 14px&quot;&gt;In ra x1,x2&lt;/font&gt;" style="shape=display;whiteSpace=wrap;html=1;" parent="WIyWlLk6GJQsqaUBKTNV-1" vertex="1">
          <mxGeometry x="452.5" y="560" width="95" height="50" as="geometry" />
        </mxCell>
        <mxCell id="JZFGKROnKqlUwRcrgVXF-38" value="" style="edgeStyle=orthogonalEdgeStyle;rounded=1;orthogonalLoop=1;jettySize=auto;html=1;" parent="WIyWlLk6GJQsqaUBKTNV-1" source="JZFGKROnKqlUwRcrgVXF-35" target="JZFGKROnKqlUwRcrgVXF-37" edge="1">
          <mxGeometry relative="1" as="geometry" />
        </mxCell>
        <mxCell id="JZFGKROnKqlUwRcrgVXF-35" value="x1 = (-b + i* sqrt(-delta)/(2*a)&lt;br&gt;x2 = (-b - i* sqrt(-delta)/(2*a)" style="whiteSpace=wrap;html=1;fontSize=14;" parent="WIyWlLk6GJQsqaUBKTNV-1" vertex="1">
          <mxGeometry x="185" y="550" width="200" height="60" as="geometry" />
        </mxCell>
        <mxCell id="JZFGKROnKqlUwRcrgVXF-40" value="" style="edgeStyle=orthogonalEdgeStyle;rounded=1;orthogonalLoop=1;jettySize=auto;html=1;" parent="WIyWlLk6GJQsqaUBKTNV-1" source="JZFGKROnKqlUwRcrgVXF-37" target="JZFGKROnKqlUwRcrgVXF-39" edge="1">
          <mxGeometry relative="1" as="geometry" />
        </mxCell>
        <mxCell id="JZFGKROnKqlUwRcrgVXF-37" value="&lt;font style=&quot;font-size: 14px&quot;&gt;In ra x1,x2&lt;/font&gt;" style="shape=display;whiteSpace=wrap;html=1;" parent="WIyWlLk6GJQsqaUBKTNV-1" vertex="1">
          <mxGeometry x="237.5" y="640" width="95" height="50" as="geometry" />
        </mxCell>
        <mxCell id="JZFGKROnKqlUwRcrgVXF-39" value="&lt;font style=&quot;font-size: 14px&quot;&gt;Kết thúc&lt;/font&gt;" style="ellipse;whiteSpace=wrap;html=1;" parent="WIyWlLk6GJQsqaUBKTNV-1" vertex="1">
          <mxGeometry x="225" y="730" width="120" height="60" as="geometry" />
        </mxCell>
        <mxCell id="JZFGKROnKqlUwRcrgVXF-43" value="" style="shape=waypoint;size=6;pointerEvents=1;points=[];fillColor=#ffffff;resizable=0;rotatable=0;perimeter=centerPerimeter;snapToPoint=1;" parent="WIyWlLk6GJQsqaUBKTNV-1" vertex="1">
          <mxGeometry x="325" y="740" width="40" height="40" as="geometry" />
        </mxCell>
        <mxCell id="JZFGKROnKqlUwRcrgVXF-62" value="" style="edgeStyle=orthogonalEdgeStyle;rounded=1;orthogonalLoop=1;jettySize=auto;html=1;fontSize=14;" parent="WIyWlLk6GJQsqaUBKTNV-1" source="JZFGKROnKqlUwRcrgVXF-46" target="JZFGKROnKqlUwRcrgVXF-61" edge="1">
          <mxGeometry relative="1" as="geometry" />
        </mxCell>
        <mxCell id="JZFGKROnKqlUwRcrgVXF-46" value="" style="shape=waypoint;size=6;pointerEvents=1;points=[];fillColor=#ffffff;resizable=0;rotatable=0;perimeter=centerPerimeter;snapToPoint=1;" parent="WIyWlLk6GJQsqaUBKTNV-1" vertex="1">
          <mxGeometry x="690" y="90" width="40" height="40" as="geometry" />
        </mxCell>
        <mxCell id="JZFGKROnKqlUwRcrgVXF-54" value="" style="edgeStyle=orthogonalEdgeStyle;rounded=1;orthogonalLoop=1;jettySize=auto;html=1;fontSize=14;" parent="WIyWlLk6GJQsqaUBKTNV-1" source="JZFGKROnKqlUwRcrgVXF-52" target="JZFGKROnKqlUwRcrgVXF-39" edge="1">
          <mxGeometry relative="1" as="geometry" />
        </mxCell>
        <mxCell id="JZFGKROnKqlUwRcrgVXF-52" value="" style="shape=waypoint;size=6;pointerEvents=1;points=[];fillColor=#ffffff;resizable=0;rotatable=0;perimeter=centerPerimeter;snapToPoint=1;" parent="WIyWlLk6GJQsqaUBKTNV-1" vertex="1">
          <mxGeometry x="90" y="740" width="40" height="40" as="geometry" />
        </mxCell>
        <mxCell id="JZFGKROnKqlUwRcrgVXF-57" value="" style="edgeStyle=orthogonalEdgeStyle;rounded=1;orthogonalLoop=1;jettySize=auto;html=1;fontSize=14;" parent="WIyWlLk6GJQsqaUBKTNV-1" source="JZFGKROnKqlUwRcrgVXF-55" edge="1">
          <mxGeometry relative="1" as="geometry">
            <mxPoint x="285" y="710" as="targetPoint" />
          </mxGeometry>
        </mxCell>
        <mxCell id="JZFGKROnKqlUwRcrgVXF-55" value="" style="shape=waypoint;size=6;pointerEvents=1;points=[];fillColor=#ffffff;resizable=0;rotatable=0;perimeter=centerPerimeter;snapToPoint=1;" parent="WIyWlLk6GJQsqaUBKTNV-1" vertex="1">
          <mxGeometry x="480" y="690" width="40" height="40" as="geometry" />
        </mxCell>
        <mxCell id="JZFGKROnKqlUwRcrgVXF-64" value="" style="edgeStyle=orthogonalEdgeStyle;rounded=1;orthogonalLoop=1;jettySize=auto;html=1;fontSize=14;" parent="WIyWlLk6GJQsqaUBKTNV-1" source="JZFGKROnKqlUwRcrgVXF-61" target="JZFGKROnKqlUwRcrgVXF-63" edge="1">
          <mxGeometry relative="1" as="geometry" />
        </mxCell>
        <mxCell id="JZFGKROnKqlUwRcrgVXF-61" value="" style="shape=waypoint;size=6;pointerEvents=1;points=[];fillColor=#ffffff;resizable=0;rotatable=0;perimeter=centerPerimeter;snapToPoint=1;" parent="WIyWlLk6GJQsqaUBKTNV-1" vertex="1">
          <mxGeometry x="690" y="740" width="40" height="40" as="geometry" />
        </mxCell>
        <mxCell id="JZFGKROnKqlUwRcrgVXF-63" value="" style="shape=waypoint;size=6;pointerEvents=1;points=[];fillColor=#ffffff;resizable=0;rotatable=0;perimeter=centerPerimeter;snapToPoint=1;" parent="WIyWlLk6GJQsqaUBKTNV-1" vertex="1">
          <mxGeometry x="325" y="740" width="40" height="40" as="geometry" />
        </mxCell>
        <mxCell id="W_G9nljvapc-reSJywXX-5" value="" style="edgeStyle=orthogonalEdgeStyle;rounded=1;orthogonalLoop=1;jettySize=auto;html=1;fontSize=14;endArrow=none;entryX=0.375;entryY=0.5;entryDx=0;entryDy=0;entryPerimeter=0;" edge="1" parent="WIyWlLk6GJQsqaUBKTNV-1" source="JZFGKROnKqlUwRcrgVXF-14" target="W_G9nljvapc-reSJywXX-4">
          <mxGeometry relative="1" as="geometry">
            <mxPoint x="605" y="760" as="targetPoint" />
            <mxPoint x="605" y="390" as="sourcePoint" />
          </mxGeometry>
        </mxCell>
        <mxCell id="W_G9nljvapc-reSJywXX-4" value="" style="shape=waypoint;sketch=0;size=6;pointerEvents=1;points=[];fillColor=none;resizable=0;rotatable=0;perimeter=centerPerimeter;snapToPoint=1;fontSize=14;" vertex="1" parent="WIyWlLk6GJQsqaUBKTNV-1">
          <mxGeometry x="585" y="410" width="40" height="40" as="geometry" />
        </mxCell>
        <mxCell id="W_G9nljvapc-reSJywXX-6" value="" style="edgeStyle=orthogonalEdgeStyle;rounded=0;orthogonalLoop=1;jettySize=auto;html=1;fontSize=14;endArrow=none;" edge="1" parent="WIyWlLk6GJQsqaUBKTNV-1" source="JZFGKROnKqlUwRcrgVXF-25" target="W_G9nljvapc-reSJywXX-4">
          <mxGeometry relative="1" as="geometry">
            <mxPoint x="445" y="410" as="sourcePoint" />
            <mxPoint x="600" y="430" as="targetPoint" />
            <Array as="points">
              <mxPoint x="445" y="430" />
            </Array>
          </mxGeometry>
        </mxCell>
      </root>
    </mxGraphModel>
  </diagram>
</mxfile>
